<?xml version="1.0" encoding="UTF-8" standalone="no"?>
<!-- Created with Inkscape (http://www.inkscape.org/) -->

<svg
   xmlns:dc="http://purl.org/dc/elements/1.1/"
   xmlns:cc="http://creativecommons.org/ns#"
   xmlns:rdf="http://www.w3.org/1999/02/22-rdf-syntax-ns#"
   xmlns:svg="http://www.w3.org/2000/svg"
   xmlns="http://www.w3.org/2000/svg"
   xmlns:sodipodi="http://sodipodi.sourceforge.net/DTD/sodipodi-0.dtd"
   xmlns:inkscape="http://www.inkscape.org/namespaces/inkscape"
   id="svg3355"
   version="1.1"
   inkscape:version="0.91 r13725"
   xml:space="preserve"
   width="990"
   height="765"
   viewBox="0 0 990 765"
   sodipodi:docname="LibraryCarpentry_Logo1_Vector.ai.svg"><metadata
     id="metadata3361"><rdf:RDF><cc:Work
         rdf:about=""><dc:format>image/svg+xml</dc:format><dc:type
           rdf:resource="http://purl.org/dc/dcmitype/StillImage" /><dc:title></dc:title></cc:Work></rdf:RDF></metadata><defs
     id="defs3359"><clipPath
       clipPathUnits="userSpaceOnUse"
       id="clipPath3369"><path
         d="M 0,612 792,612 792,0 0,0 0,612 Z"
         id="path3371"
         inkscape:connector-curvature="0" /></clipPath></defs><sodipodi:namedview
     pagecolor="#ffffff"
     bordercolor="#666666"
     borderopacity="1"
     objecttolerance="10"
     gridtolerance="10"
     guidetolerance="10"
     inkscape:pageopacity="0"
     inkscape:pageshadow="2"
     inkscape:window-width="933"
     inkscape:window-height="643"
     id="namedview3357"
     showgrid="false"
     inkscape:zoom="0.65490196"
     inkscape:cx="495"
     inkscape:cy="382.5"
     inkscape:window-x="0"
     inkscape:window-y="0"
     inkscape:window-maximized="0"
     inkscape:current-layer="g3363" /><g
     id="g3363"
     inkscape:groupmode="layer"
     inkscape:label="LibraryCarpentry_Logo_Vector"
     transform="matrix(1.25,0,0,-1.25,0,765)"><g
       id="g3365"><g
         id="g3367"
         clip-path="url(#clipPath3369)"><g
           id="g3373"
           transform="translate(314.9707,239.4268)"><path
             d="m 0,0 c 8.395,0 13.455,3.795 18.055,7.935 l 0,13.571 C 6.095,21.391 -9.775,21.391 -9.775,9.431 -9.775,3.335 -6.441,0 0,0 m 18.055,29.786 0,5.405 c 0,5.175 -3.105,9.662 -12.651,9.662 -10.465,0 -16.791,-4.832 -17.94,-4.832 -1.61,0 -4.025,4.486 -4.025,5.751 0,2.991 10.12,7.36 21.621,7.36 14.26,0 22.656,-6.67 22.656,-18.055 l 0,-25.762 c 0,-9.43 1.38,-13.916 1.38,-14.49 0,-2.185 -4.715,-2.646 -6.21,-2.646 -2.761,0 -3.335,4.831 -4.026,8.05 -4.37,-4.83 -10.695,-8.625 -19.321,-8.625 -11.155,0 -19.666,5.406 -19.666,17.251 0,19.436 20.586,20.701 38.182,20.931"
             style="fill:#7b7979;fill-opacity:1;fill-rule:nonzero;stroke:none"
             id="path3375"
             inkscape:connector-curvature="0" /></g><g
           id="g3377"
           transform="translate(362.2344,274.3887)"><path
             d="m 0,0 c 0,9.43 -1.381,13.915 -1.381,14.49 0,2.186 4.716,2.645 6.211,2.645 2.76,0 3.336,-4.6 4.025,-7.59 3.911,5.52 8.51,8.625 13.34,8.625 4.487,0 6.671,-1.955 6.671,-4.484 0,-2.186 -0.92,-6.211 -2.3,-6.211 C 25.071,7.475 24.15,8.74 20.24,8.74 14.261,8.74 9.66,1.725 9.66,1.725 l 0,-42.092 c 0,-1.611 -1.38,-2.53 -4.599,-2.53 l -0.461,0 c -3.22,0 -4.6,0.919 -4.6,2.53 L 0,0 Z"
             style="fill:#7b7979;fill-opacity:1;fill-rule:nonzero;stroke:none"
             id="path3379"
             inkscape:connector-curvature="0" /></g><g
           id="g3381"
           transform="translate(427.4404,239.541)"><path
             d="m 0,0 0.69,0 c 9.89,0.23 15.065,7.706 15.065,21.392 0,14.835 -5.06,23.231 -14.145,23.231 -5.06,0 -10.81,-2.761 -15.526,-7.935 l 0,-31.512 C -9.776,1.726 -4.945,0 0,0 m -13.916,-29.211 c 0,-1.609 -1.38,-2.53 -4.601,-2.53 l -0.459,0 c -3.22,0 -4.6,0.921 -4.6,2.53 l 0,64.059 c 0,9.429 -1.38,13.915 -1.38,14.49 0,2.185 4.715,2.644 6.21,2.644 2.761,0 3.335,-4.599 4.025,-7.589 5.636,5.865 11.731,8.625 18.286,8.625 13.801,0 22.311,-12.88 22.311,-30.362 l 0,-1.035 c 0,-19.32 -9.66,-30.131 -23.346,-30.131 -7.131,0 -11.961,2.415 -16.446,5.865 l 0,-26.566 z"
             style="fill:#7b7979;fill-opacity:1;fill-rule:nonzero;stroke:none"
             id="path3383"
             inkscape:connector-curvature="0" /></g><g
           id="g3385"
           transform="translate(506.4453,266.1074)"><path
             d="M 0,0 C 0,12.076 -4.6,18.172 -13.801,18.172 -23.806,18.172 -29.096,12.076 -29.9,0 L 0,0 Z m -13.455,26.451 c 15.756,0 23.691,-10.465 23.691,-30.015 0,-1.381 -2.416,-4.715 -3.795,-4.715 l -36.341,0 c 0.92,-12.766 6.324,-18.517 17.711,-18.517 10.004,0 15.64,4.83 16.79,4.83 1.61,0 4.025,-4.485 4.025,-5.75 0,-2.761 -9.085,-7.36 -20.701,-7.36 -19.091,0 -28.177,9.775 -28.177,30.361 0,20.356 9.201,31.166 26.797,31.166"
             style="fill:#7b7979;fill-opacity:1;fill-rule:nonzero;stroke:none"
             id="path3387"
             inkscape:connector-curvature="0" /></g><g
           id="g3389"
           transform="translate(531.7422,274.3887)"><path
             d="m 0,0 c 0,9.43 -1.38,13.915 -1.38,14.49 0,2.186 4.716,2.645 6.21,2.645 2.761,0 3.336,-4.6 4.025,-7.59 4.831,5.405 11.501,8.625 17.942,8.625 11.73,0 18.746,-7.015 18.746,-18.631 l 0,-39.906 c 0,-1.611 -1.381,-2.53 -4.601,-2.53 l -0.46,0 c -3.22,0 -4.6,0.919 -4.6,2.53 l 0,38.986 c 0,7.016 -4.255,11.156 -11.731,11.156 -5.174,0 -10.695,-3.105 -14.491,-8.05 l 0,-42.092 c 0,-1.611 -1.379,-2.53 -4.599,-2.53 l -0.46,0 c -3.22,0 -4.601,0.919 -4.601,2.53 L 0,0 Z"
             style="fill:#7b7979;fill-opacity:1;fill-rule:nonzero;stroke:none"
             id="path3391"
             inkscape:connector-curvature="0" /></g><g
           id="g3393"
           transform="translate(598.2119,283.5889)"><path
             d="M 0,0 -5.751,0 C -7.36,0 -8.05,1.034 -8.05,3.45 l 0,1.38 c 0,2.415 0.69,3.45 2.299,3.45 L 0,8.28 1.38,20.356 c 0.115,1.61 1.266,2.53 3.68,2.53 l 1.15,0 c 2.416,0 3.45,-0.92 3.45,-2.53 l 0,-12.076 9.661,0 c 1.61,0 2.3,-1.035 2.3,-3.45 l 0,-1.38 C 21.621,1.034 20.931,0 19.321,0 l -9.661,0 0,-35.767 c 0,-6.9 2.876,-8.51 6.21,-8.51 3.336,0 3.91,0.575 4.945,0.575 1.611,0 2.416,-4.486 2.416,-5.405 0,-3.106 -5.291,-3.451 -8.396,-3.451 C 9.085,-52.558 0,-50.027 0,-36.687 L 0,0 Z"
             style="fill:#7b7979;fill-opacity:1;fill-rule:nonzero;stroke:none"
             id="path3395"
             inkscape:connector-curvature="0" /></g><g
           id="g3397"
           transform="translate(635.5859,274.3887)"><path
             d="m 0,0 c 0,9.43 -1.38,13.915 -1.38,14.49 0,2.186 4.716,2.645 6.21,2.645 2.761,0 3.336,-4.6 4.025,-7.59 3.911,5.52 8.511,8.625 13.341,8.625 4.486,0 6.671,-1.955 6.671,-4.484 0,-2.186 -0.92,-6.211 -2.301,-6.211 -1.494,0 -2.415,1.265 -6.325,1.265 C 14.262,8.74 9.66,1.725 9.66,1.725 l 0,-42.092 c 0,-1.611 -1.379,-2.53 -4.599,-2.53 l -0.46,0 c -3.22,0 -4.601,0.919 -4.601,2.53 L 0,0 Z"
             style="fill:#7b7979;fill-opacity:1;fill-rule:nonzero;stroke:none"
             id="path3399"
             inkscape:connector-curvature="0" /></g><g
           id="g3401"
           transform="translate(669.7402,288.6484)"><path
             d="m 0,0 c -0.114,0.346 -0.344,1.035 -0.344,1.496 0,1.15 1.494,1.955 4.945,1.955 l 0.92,0 c 2.299,0 4.025,-0.461 4.6,-1.841 L 25.762,-39.906 41.057,1.61 c 0.461,1.38 2.3,1.841 4.716,1.841 3.45,0 4.946,-0.69 4.946,-1.955 0,-0.461 -0.115,-0.92 -0.346,-1.611 L 20.816,-78.434 c -0.689,-1.724 -2.644,-2.415 -5.404,-2.415 l -1.726,0 c -2.53,0 -3.795,0.691 -3.795,1.841 0,0.69 0.23,0.92 10.236,25.301 L 0,0 Z"
             style="fill:#7b7979;fill-opacity:1;fill-rule:nonzero;stroke:none"
             id="path3403"
             inkscape:connector-curvature="0" /></g><g
           id="g3405"
           transform="translate(173.6738,440.5723)"><path
             d="m 0,0 c 0,1.609 1.381,2.529 4.602,2.529 l 0.459,0 c 3.22,0 4.6,-0.92 4.6,-2.529 l 0,-55.548 c 0,-1.61 -1.38,-2.53 -4.6,-2.53 l -0.459,0 c -3.221,0 -4.602,0.92 -4.602,2.53 L 0,0 Z m -0.459,19.32 0,6.785 c 0,1.611 1.38,2.531 4.6,2.531 l 1.38,0 c 3.22,0 4.6,-0.92 4.6,-2.531 l 0,-6.785 c 0,-1.609 -1.38,-2.529 -4.6,-2.529 l -1.38,0 c -3.22,0 -4.6,0.92 -4.6,2.529"
             style="fill:#7b7979;fill-opacity:1;fill-rule:nonzero;stroke:none"
             id="path3407"
             inkscape:connector-curvature="0" /></g><g
           id="g3409"
           transform="translate(228.6465,390.4297)"><path
             d="m 0,0 c 9.084,0 14.145,8.395 14.145,23.23 0,13.686 -5.175,21.163 -15.066,21.392 l -0.69,0 c -4.946,0 -9.776,-1.726 -13.915,-5.175 l 0,-31.511 C -10.811,2.76 -5.061,0 0,0 m -25.188,76.248 c 0,1.61 1.381,2.53 4.601,2.53 l 0.46,0 c 3.221,0 4.601,-0.92 4.601,-2.53 l 0,-28.98 c 4.485,3.449 9.315,5.865 16.446,5.865 13.685,0 23.346,-10.811 23.346,-30.132 l 0,-1.035 c 0,-17.482 -8.511,-30.362 -22.311,-30.362 -6.557,0 -12.651,2.761 -18.287,8.626 -0.805,-4.025 -1.84,-6.786 -1.84,-6.786 -0.46,-1.034 -1.494,-1.38 -3.105,-1.38 l -0.459,0 c -2.416,0 -3.452,0.92 -3.452,2.531 l 0,81.653 z"
             style="fill:#7b7979;fill-opacity:1;fill-rule:nonzero;stroke:none"
             id="path3411"
             inkscape:connector-curvature="0" /></g><g
           id="g3413"
           transform="translate(269.4678,425.3906)"><path
             d="m 0,0 c 0,9.432 -1.38,13.916 -1.38,14.491 0,2.185 4.715,2.646 6.21,2.646 2.761,0 3.335,-4.601 4.025,-7.591 3.911,5.52 8.511,8.626 13.341,8.626 4.485,0 6.67,-1.955 6.67,-4.486 0,-2.185 -0.92,-6.209 -2.3,-6.209 -1.495,0 -2.415,1.263 -6.325,1.263 C 14.261,8.74 9.66,1.726 9.66,1.726 l 0,-42.092 c 0,-1.611 -1.38,-2.53 -4.6,-2.53 l -0.459,0 C 1.38,-42.896 0,-41.977 0,-40.366 L 0,0 Z"
             style="fill:#7b7979;fill-opacity:1;fill-rule:nonzero;stroke:none"
             id="path3415"
             inkscape:connector-curvature="0" /></g><g
           id="g3417"
           transform="translate(326.9688,390.4297)"><path
             d="m 0,0 c 8.395,0 13.455,3.795 18.055,7.936 l 0,13.57 C 6.095,21.391 -9.775,21.391 -9.775,9.43 -9.775,3.335 -6.441,0 0,0 m 18.055,29.786 0,5.405 c 0,5.176 -3.105,9.661 -12.651,9.661 -10.465,0 -16.791,-4.831 -17.94,-4.831 -1.61,0 -4.025,4.486 -4.025,5.75 0,2.991 10.12,7.362 21.621,7.362 14.26,0 22.656,-6.671 22.656,-18.057 l 0,-25.761 c 0,-9.43 1.38,-13.916 1.38,-14.491 0,-2.184 -4.715,-2.644 -6.21,-2.644 -2.761,0 -3.335,4.83 -4.026,8.05 -4.37,-4.831 -10.695,-8.626 -19.321,-8.626 -11.155,0 -19.666,5.406 -19.666,17.251 0,19.436 20.586,20.702 38.182,20.931"
             style="fill:#7b7979;fill-opacity:1;fill-rule:nonzero;stroke:none"
             id="path3419"
             inkscape:connector-curvature="0" /></g><g
           id="g3421"
           transform="translate(374.2324,425.3906)"><path
             d="m 0,0 c 0,9.432 -1.381,13.916 -1.381,14.491 0,2.185 4.716,2.646 6.211,2.646 2.76,0 3.336,-4.601 4.025,-7.591 3.911,5.52 8.51,8.626 13.34,8.626 4.487,0 6.671,-1.955 6.671,-4.486 0,-2.185 -0.92,-6.209 -2.3,-6.209 C 25.071,7.477 24.15,8.74 20.24,8.74 14.261,8.74 9.66,1.726 9.66,1.726 l 0,-42.092 c 0,-1.611 -1.38,-2.53 -4.599,-2.53 l -0.461,0 c -3.22,0 -4.6,0.919 -4.6,2.53 L 0,0 Z"
             style="fill:#7b7979;fill-opacity:1;fill-rule:nonzero;stroke:none"
             id="path3423"
             inkscape:connector-curvature="0" /></g><g
           id="g3425"
           transform="translate(408.3867,439.6523)"><path
             d="m 0,0 c -0.115,0.345 -0.345,1.035 -0.345,1.494 0,1.151 1.495,1.955 4.945,1.955 l 0.921,0 c 2.299,0 4.024,-0.459 4.6,-1.84 L 25.762,-39.907 41.057,1.609 c 0.461,1.381 2.3,1.84 4.715,1.84 3.451,0 4.945,-0.689 4.945,-1.955 0,-0.459 -0.114,-0.92 -0.344,-1.609 L 20.816,-78.434 c -0.69,-1.725 -2.645,-2.416 -5.406,-2.416 l -1.724,0 c -2.53,0 -3.795,0.691 -3.795,1.84 0,0.691 0.23,0.92 10.235,25.302 L 0,0 Z"
             style="fill:#7b7979;fill-opacity:1;fill-rule:nonzero;stroke:none"
             id="path3427"
             inkscape:connector-curvature="0" /></g><g
           id="g3429"
           transform="translate(268.1396,298.084)"><path
             d="m 0,0 -46.771,0 0,-23.824 20.206,0.731 c 0,0 18.242,-2.564 26.565,23.093"
             style="fill:#7b7979;fill-opacity:1;fill-rule:nonzero;stroke:none"
             id="path3431"
             inkscape:connector-curvature="0" /></g><g
           id="g3433"
           transform="translate(186.2686,298.084)"><path
             d="m 0,0 -42.728,0 0,-25.971 c 9.594,-3.48 13.341,-10.605 25.592,-10.605 9.515,0 13.448,2.511 17.136,5.279 L 0,0 Z"
             style="fill:#7b7979;fill-opacity:1;fill-rule:nonzero;stroke:none"
             id="path3435"
             inkscape:connector-curvature="0" /></g><g
           id="g3437"
           transform="translate(209.8252,213.8242)"><path
             d="m 0,0 c 0,-4.353 -2.758,-7.882 -6.156,-7.882 -3.4,0 -6.157,3.529 -6.157,7.882 l 0,88.789 c 0,4.357 2.757,7.885 6.157,7.885 C -2.758,96.674 0,93.146 0,88.789 L 0,0 Z m 97.275,115.246 -2.406,0 0,5.904 c 0.123,0.248 0.2,0.528 0.2,0.827 l 0,24.638 c 0,1 -0.78,1.811 -1.744,1.811 l -72.647,0 c -0.499,0.054 -0.99,-0.082 -1.342,-0.432 l -39.469,-39.023 c -0.385,-0.381 -0.516,-0.926 -0.424,-1.473 l 0,-122.405 c 0,-0.786 0.368,-1.451 0.879,-1.705 l 37.85,-37.372 c 0.118,-0.117 0.256,-0.2 0.402,-0.267 0.25,-0.142 0.533,-0.23 0.84,-0.23 l 54.664,0 0,-1.984 c 0,-1.01 0.798,-1.828 1.783,-1.828 l 16.87,0 c 0.986,0 1.784,0.818 1.784,1.828 l 0,32.827 c 0,1.011 -0.798,1.828 -1.784,1.828 l -16.87,0 c -0.985,0 -1.783,-0.817 -1.783,-1.828 l 0,-2.586 -43.512,0 -22.259,21.981 0,102.237 22.425,22.172 35.677,0 0,-4.92 -2.608,0 c -1.039,0 -1.881,-0.779 -1.881,-1.744 l 0,-5.291 c 0,-0.965 0.842,-1.744 1.881,-1.744 l 33.474,0 c 1.038,0 1.883,0.779 1.883,1.744 l 0,5.291 c 0,0.965 -0.845,1.744 -1.883,1.744"
             style="fill:#7b7979;fill-opacity:1;fill-rule:nonzero;stroke:none"
             id="path3439"
             inkscape:connector-curvature="0" /></g><g
           id="g3441"
           transform="translate(130.4912,285.0215)"><path
             d="m 0,0 c 0,-3.017 -2.265,-5.463 -5.058,-5.463 -2.793,0 -5.056,2.446 -5.056,5.463 0,3.016 2.263,5.461 5.056,5.461 C -2.265,5.461 0,3.016 0,0 m 10.128,209.072 0,8.47 -30.371,0 0,-243.478 30.371,0 0,64.17 -7.734,0 0,5.678 7.734,0 0,17.915 -12.681,0 0,5.679 12.681,0 0,17.915 -7.734,0 0,5.681 7.734,0 0,17.914 -12.681,0 0,5.679 12.681,0 0,17.914 -7.734,0 0,5.68 7.734,0 0,17.914 -12.681,0 0,5.68 12.681,0 0,17.914 -7.734,0 0,5.681 7.734,0 0,17.916 -12.681,0 0,5.678 12.681,0 z"
             style="fill:#7b7979;fill-opacity:1;fill-rule:nonzero;stroke:none"
             id="path3443"
             inkscape:connector-curvature="0" /></g><g
           id="g3445"
           transform="translate(107.7373,298.084)"><path
             d="m 0,0 -36.196,0 c 9.542,-26.602 27.375,-23.093 27.375,-23.093 L 0,-23.428 0,0 Z"
             style="fill:#7b7979;fill-opacity:1;fill-rule:nonzero;stroke:none"
             id="path3447"
             inkscape:connector-curvature="0" /></g><g
           id="g3449"
           transform="translate(331.3496,127.376)"><path
             d="m 0,0 -16.679,0 c -0.957,0 -1.731,-0.771 -1.731,-1.726 l 0,-1.024 -11.653,0 0,5.289 c 0,1.065 -0.859,1.927 -1.918,1.927 l -1.387,0 0,20.79 -8.378,0 0,-20.79 -1.386,0 c -1.06,0 -1.918,-0.862 -1.918,-1.927 l 0,-5.289 -37.023,0 0.01,0.706 c 0,0.69 -0.654,2.1 -1.276,2.1 l -0.994,0 0,0.019 -6.413,-0.001 0,-13.827 3.643,10e-4 c 0.114,-0.043 0.231,-0.08 0.358,-0.08 l 3.406,0 c 0.622,0 1.123,0.56 1.123,1.25 l 0.035,2.363 37.131,0 0,-5.794 c 0,-1.064 0.858,-1.926 1.918,-1.926 l 11.151,0 c 1.059,0 1.918,0.862 1.918,1.926 l 0,5.794 11.653,0 0,-1.529 c 0,-0.954 0.774,-1.726 1.731,-1.726 l 16.679,0 c 0.956,0 1.731,0.772 1.731,1.726 l 0,10.022 C 1.731,-0.771 0.956,0 0,0"
             style="fill:#7b7979;fill-opacity:1;fill-rule:nonzero;stroke:none"
             id="path3451"
             inkscape:connector-curvature="0" /></g><g
           id="g3453"
           transform="translate(285.8154,217.1611)"><path
             d="m 0,0 3.998,0 0,-21.466 8.919,0 0,21.466 3.999,0 c 1.023,0 1.855,0.781 1.855,1.745 l 0,5.292 c 0,0.088 -0.014,0.174 -0.027,0.258 l 0,2.294 -20.572,0 0,-2.294 C -1.842,7.211 -1.855,7.125 -1.855,7.037 l 0,-5.292 C -1.855,0.781 -1.025,0 0,0"
             style="fill:#7b7979;fill-opacity:1;fill-rule:nonzero;stroke:none"
             id="path3455"
             inkscape:connector-curvature="0" /></g></g></g></g></svg>